<?xml version="1.0" standalone="no"?>
<!DOCTYPE svg PUBLIC "-//W3C//DTD SVG 20010904//EN"
 "http://www.w3.org/TR/2001/REC-SVG-20010904/DTD/svg10.dtd">
<svg version="1.0" xmlns="http://www.w3.org/2000/svg"
 width="748.000000pt" height="748.000000pt" viewBox="0 0 748.000000 748.000000"
 preserveAspectRatio="xMidYMid meet">
<metadata>
Created by potrace 1.14, written by Peter Selinger 2001-2017
</metadata>
<g transform="translate(0.000000,748.000000) scale(0.100000,-0.100000)"
fill="#000000" stroke="none">
<path d="M3515 7474 c-208 -20 -277 -29 -390 -49 -932 -171 -1734 -725 -2225
-1540 -180 -298 -321 -669 -395 -1033 -47 -233 -60 -370 -60 -642 0 -330 26
-543 100 -825 43 -165 146 -465 159 -465 3 0 3 6 -69 447 l-48 292 42 64 41
63 -10 80 c-30 234 -22 566 21 826 204 1260 1158 2259 2405 2522 719 151 1489
34 2126 -325 439 -246 832 -621 1104 -1051 36 -57 102 -177 148 -269 590
-1179 361 -2601 -569 -3532 -464 -465 -1050 -765 -1694 -868 -69 -11 -146 -26
-171 -34 -25 -8 -187 -48 -360 -90 -173 -41 -324 -79 -335 -84 -70 -30 568
-36 785 -8 1030 138 1907 717 2425 1600 401 686 537 1509 379 2297 -196 980
-848 1831 -1745 2281 -348 174 -677 274 -1071 324 -116 15 -505 28 -593 19z"/>
<path d="M3420 7055 c-943 -105 -1752 -643 -2212 -1470 -230 -412 -358 -911
-358 -1396 0 -64 3 -118 6 -122 4 -3 299 419 658 938 492 714 656 945 671 945
11 0 270 -38 576 -85 306 -47 565 -85 576 -85 10 0 86 50 168 110 82 61 154
109 160 107 5 -2 182 -257 391 -567 210 -310 385 -565 390 -567 5 -1 180 103
389 231 364 222 380 231 383 207 2 -14 -20 -253 -47 -531 -28 -278 -53 -533
-56 -567 -6 -60 -6 -62 22 -77 26 -13 43 -13 139 -1 427 54 1018 125 1020 122
2 -2 -418 -634 -933 -1405 -515 -771 -934 -1404 -931 -1407 8 -8 221 58 340
106 159 63 385 182 525 275 174 116 295 215 443 364 444 444 714 985 815 1630
25 161 31 502 11 685 -72 670 -355 1266 -826 1735 -470 469 -1073 756 -1732
825 -173 18 -426 18 -588 0z"/>
<path d="M1525 4680 c-584 -847 -730 -1065 -728 -1087 6 -74 282 -1726 290
-1733 4 -4 309 -211 677 -460 l669 -453 116 27 c96 22 691 173 1461 371 l145
37 870 1305 c479 718 871 1308 873 1312 1 4 -204 -18 -455 -49 l-458 -57 -42
21 c-34 16 -43 25 -43 45 0 33 44 515 71 779 11 111 19 206 17 211 -2 4 -111
-58 -243 -138 l-240 -147 -33 -84 c-43 -114 -40 -110 -114 -150 -36 -19 -72
-41 -82 -49 -9 -7 -57 -78 -108 -157 -50 -80 -93 -142 -95 -140 -3 2 0 80 6
172 7 92 8 171 4 174 -5 4 -52 24 -105 45 -54 21 -98 41 -98 44 0 4 86 17 191
31 l192 24 18 44 c11 24 22 54 25 67 4 18 -63 124 -332 521 -185 275 -342 504
-348 511 -9 10 -58 -22 -211 -136 l-200 -149 -3 84 -3 83 -32 6 c-117 20 -887
135 -903 135 -14 -1 -218 -289 -749 -1060z m1477 323 c51 -34 86 -63 83 -70
-2 -7 -143 -207 -312 -445 l-308 -433 3 -65 c7 -183 63 -1386 65 -1392 3 -11
1430 531 1448 550 9 9 127 173 263 365 136 191 249 347 252 347 16 0 185 -144
181 -154 -3 -6 -134 -193 -292 -415 l-288 -404 -53 -640 c-30 -353 -55 -645
-57 -651 -2 -5 -147 -47 -323 -93 -175 -45 -511 -133 -746 -195 l-428 -111
-604 403 -605 403 -10 51 c-32 156 -242 1448 -238 1459 3 7 283 163 623 346
l619 334 310 433 c171 238 314 433 319 434 6 0 49 -26 98 -57z"/>
<path d="M1074 1649 c3 -13 35 -206 71 -429 36 -223 70 -428 76 -456 12 -61
50 -102 101 -110 24 -4 163 25 481 102 246 59 447 110 447 113 0 5 -1048 719
-1152 785 l-29 19 5 -24z"/>
<path d="M4444 418 c3 -7 9 -21 12 -30 4 -10 10 -18 13 -18 15 0 20 13 11 30
-11 21 -45 37 -36 18z"/>
<path d="M3090 398 c0 -8 -9 -23 -20 -33 -27 -25 -18 -31 14 -10 25 16 26 16
26 -1 0 -32 -38 -84 -61 -84 -19 0 -21 4 -16 36 5 32 4 34 -15 28 -17 -5 -20
-3 -15 10 6 15 5 16 -15 2 -20 -14 -24 -14 -43 4 l-20 19 3 -109 c3 -69 0
-110 -6 -110 -5 0 -22 16 -37 36 -27 35 -29 66 -8 121 4 10 2 14 -4 10 -6 -4
-14 -1 -17 5 -3 10 -9 8 -19 -4 -8 -10 -21 -18 -29 -18 -9 0 -23 -19 -32 -45
-16 -40 -36 -61 -36 -36 0 4 -21 14 -47 21 -27 7 -58 19 -69 26 -21 12 -22 11
-28 -21 -10 -53 -86 -124 -86 -80 0 24 -21 18 -56 -16 -44 -43 -64 -34 -64 27
0 41 2 46 20 41 10 -3 24 1 30 8 8 9 -6 13 -62 18 -42 4 -77 2 -82 -3 -7 -7
-6 -10 2 -10 19 0 14 -20 -14 -57 -30 -39 -51 -42 -64 -8 -12 33 -34 33 -26 1
5 -19 -1 -30 -25 -51 -37 -30 -34 -38 7 -26 24 7 36 4 55 -9 28 -22 39 -17 39
14 0 15 9 27 25 34 34 15 55 5 62 -29 7 -35 39 -46 91 -31 98 28 141 33 162
22 11 -6 18 -15 15 -21 -4 -5 -1 -9 4 -9 6 0 11 5 11 10 0 15 40 12 56 -5 9
-8 25 -15 36 -15 12 0 29 -7 38 -15 20 -19 110 -10 110 11 0 7 14 15 31 19 19
4 33 15 36 26 3 10 12 19 21 19 23 0 82 -23 82 -32 0 -12 28 -9 58 6 18 9 44
12 75 9 41 -5 48 -9 44 -24 -3 -11 -1 -22 4 -25 5 -3 9 11 9 30 0 20 1 36 3
36 1 0 17 -4 35 -9 27 -8 36 -6 61 15 31 26 56 31 67 13 5 -8 10 -6 16 5 12
22 28 20 28 -4 0 -24 4 -25 35 -4 14 9 25 13 25 10 0 -4 9 -2 19 3 14 8 22 7
30 -3 10 -12 74 -22 199 -31 27 -2 49 -10 56 -21 9 -12 22 -15 44 -12 25 4 33
0 38 -16 6 -19 7 -19 20 -1 8 10 14 33 14 51 0 27 3 31 20 27 12 -3 20 0 20 6
0 7 4 10 10 6 5 -3 7 -12 3 -20 -4 -12 3 -15 30 -15 20 0 39 5 42 10 3 6 21
10 40 10 21 0 35 6 39 16 4 11 12 14 24 9 41 -17 92 -22 92 -9 0 22 20 27 40
9 11 -10 26 -15 35 -12 10 5 21 -6 35 -33 11 -22 20 -46 20 -55 0 -8 5 -15 10
-15 6 0 10 11 10 25 0 14 5 25 10 25 6 0 10 -11 10 -25 0 -28 16 -31 44 -10
11 8 28 15 38 15 11 0 18 7 18 20 0 24 8 25 38 5 17 -13 29 -14 61 -5 21 5 44
17 52 26 11 14 13 14 21 0 11 -19 41 -21 70 -5 17 9 24 8 32 -3 17 -23 83 -30
102 -11 11 12 18 13 27 4 16 -16 48 -14 69 6 12 10 22 13 26 7 13 -18 63 -34
110 -34 26 0 69 -8 96 -17 47 -17 49 -17 60 1 6 11 19 28 29 38 10 10 15 23
12 28 -9 15 6 61 19 57 6 -2 11 -17 11 -33 0 -21 5 -30 20 -32 11 -2 25 -8 30
-12 9 -7 246 -50 276 -50 6 0 8 9 4 20 -5 16 -2 20 14 20 13 0 21 -7 21 -17 1
-17 1 -17 11 0 15 25 32 11 19 -16 -10 -22 -10 -22 6 1 19 25 39 29 48 7 8
-22 46 -19 46 4 0 23 18 31 45 20 61 -24 199 0 210 36 6 19 7 18 14 -5 4 -13
21 -33 39 -43 29 -17 34 -17 62 -4 26 14 30 14 30 1 0 -10 6 -13 19 -9 10 3
47 -1 82 -10 81 -19 79 -19 79 8 l1 22 18 -22 c22 -27 31 -29 31 -8 0 18 -9
17 170 15 117 -1 153 -5 187 -20 l43 -19 6 25 c7 28 8 29 38 8 16 -10 26 -12
31 -5 3 6 15 11 26 11 25 0 25 29 0 99 -25 71 -60 94 -151 97 -38 1 -92 10
-121 19 -36 12 -54 14 -57 7 -2 -6 -10 -8 -18 -5 -8 3 -14 0 -14 -6 0 -15 -60
-2 -82 17 -16 14 -18 13 -18 -1 0 -8 -7 -14 -16 -13 -18 3 -35 26 -28 38 3 4
-4 8 -15 8 -12 0 -21 -4 -21 -10 0 -5 -26 -10 -57 -10 -73 -1 -127 -13 -149
-34 -10 -11 -23 -14 -33 -10 -21 9 -52 9 -73 0 -11 -5 -18 -1 -23 13 -8 28
-33 27 -46 -2 -10 -22 -53 -49 -64 -39 -3 3 -5 16 -5 28 0 31 -16 38 -51 24
-23 -10 -32 -10 -44 0 -8 7 -15 8 -15 2 0 -5 10 -16 22 -24 14 -9 19 -20 15
-31 -10 -28 -43 -20 -57 13 -16 38 -49 59 -83 53 -33 -6 -59 -33 -32 -33 17 0
17 -1 0 -20 -25 -28 -59 -27 -50 1 5 16 4 19 -5 14 -10 -6 -11 -1 -6 19 6 24
4 27 -16 26 -37 -3 -50 -1 -44 9 3 5 -1 12 -10 15 -23 9 -24 8 -24 -19 0 -37
-25 -31 -50 13 -19 31 -24 34 -29 19 -6 -17 -8 -17 -20 -3 -18 21 -31 20 -31
-2 0 -9 -9 -23 -20 -30 -12 -7 -20 -8 -20 -2 0 19 -28 10 -33 -10 -6 -22 -29
-28 -26 -7 4 29 -3 37 -31 37 -19 0 -30 -5 -30 -14 0 -7 -6 -18 -13 -24 -10
-8 -16 -6 -25 9 -10 16 -10 20 3 25 19 8 19 23 0 30 -8 4 -24 -5 -37 -21 -27
-30 -63 -26 -55 7 4 15 1 18 -13 13 -13 -4 -20 0 -25 15 -8 24 -14 25 -45 3
-34 -24 -159 -21 -178 4 -13 16 -14 16 -8 -8 4 -17 1 -31 -9 -39 -17 -14 -35
-5 -35 17 0 15 -2 14 -18 0 -20 -19 -52 -23 -52 -7 0 6 5 10 11 10 8 0 9 4 0
13 -6 8 -7 17 -3 22 4 4 -6 5 -23 1 -16 -4 -36 -15 -43 -24 -11 -14 -14 -15
-21 -3 -7 11 -13 6 -25 -18 -16 -31 -30 -39 -40 -23 -9 15 -86 13 -92 -2 -7
-19 -44 -28 -44 -11 0 8 8 18 18 24 11 7 14 13 7 20 -14 14 -55 2 -55 -15 0
-8 -4 -14 -10 -14 -5 0 -10 5 -10 11 0 6 -9 9 -20 6 -11 -3 -20 -1 -20 4 0 5
-7 9 -15 9 -8 0 -15 8 -15 18 0 14 -4 12 -20 -8 l-19 -25 -15 35 -16 35 2 -30
c3 -26 0 -30 -20 -28 -13 2 -36 -4 -53 -12 -16 -9 -29 -11 -29 -6 0 6 -7 8
-15 5 -8 -4 -15 -12 -15 -19 0 -7 -6 -18 -14 -24 -10 -8 -19 -7 -37 7 -13 11
-30 17 -36 15 -7 -3 -13 3 -13 13 0 15 -6 12 -32 -13 -18 -17 -39 -28 -45 -26
-8 3 -13 -3 -13 -14 0 -10 -7 -28 -15 -40 -8 -12 -12 -29 -9 -38 4 -10 1 -21
-7 -26 -15 -9 -27 10 -28 48 -1 15 4 21 13 17 23 -9 31 45 9 62 -29 23 -73 45
-73 37 0 -12 -90 -113 -101 -113 -5 0 -9 15 -9 34 0 28 5 36 30 46 17 7 30 16
30 21 0 13 -14 11 -28 -3 -10 -10 -15 -10 -22 2 -8 13 -11 12 -22 -3 -23 -31
-128 -44 -128 -16 0 14 -68 10 -100 -6 -21 -11 -29 -12 -32 -3 -2 6 -15 -16
-27 -50 -13 -34 -28 -62 -34 -62 -6 0 -8 30 -5 80 4 65 2 80 -10 80 -11 0 -13
-9 -8 -37 l6 -38 -23 28 -24 28 -10 -33 -11 -33 -1 35 c-1 29 -3 32 -12 18
-14 -24 -29 -23 -29 2 0 54 -61 20 -89 -49 -18 -42 -31 -39 -31 8 0 60 -15 57
-35 -7 -27 -88 -50 -128 -74 -128 -12 0 -21 5 -21 11 0 5 20 50 44 100 40 81
43 92 29 107 -8 9 -12 22 -8 27 3 6 2 11 -4 11 -5 0 -16 3 -25 6 -10 4 -16 1
-16 -8z"/>
<path d="M3216 374 c-4 -9 -4 -19 -2 -21 8 -8 26 8 26 23 0 19 -16 18 -24 -2z"/>
<path d="M3461 328 c0 -7 4 -22 8 -33 7 -17 9 -15 13 13 3 22 1 32 -9 32 -7 0
-13 -6 -12 -12z"/>
<path d="M5715 320 c-19 -8 -19 -9 2 -9 12 -1 25 4 28 9 7 12 -2 12 -30 0z"/>
<path d="M2520 309 c0 -5 5 -7 10 -4 6 3 10 8 10 11 0 2 -4 4 -10 4 -5 0 -10
-5 -10 -11z"/>
<path d="M2567 292 c-21 -23 -21 -32 -3 -32 7 0 16 11 18 25 6 30 6 30 -15 7z"/>
<path d="M2080 234 c-27 -9 -36 -18 -38 -40 -3 -24 -2 -26 12 -15 8 7 20 10
25 7 11 -7 45 38 39 51 -1 5 -19 3 -38 -3z"/>
<path d="M1770 195 c7 -8 16 -15 21 -15 5 0 6 7 3 15 -4 8 -13 15 -21 15 -13
0 -13 -3 -3 -15z"/>
<path d="M1885 180 c-3 -5 1 -10 9 -10 9 0 16 5 16 10 0 6 -4 10 -9 10 -6 0
-13 -4 -16 -10z"/>
<path d="M1483 163 c-13 -2 -23 -9 -23 -14 0 -11 50 -1 65 12 9 9 -2 10 -42 2z"/>
<path d="M1741 154 c0 -11 3 -14 6 -6 3 7 2 16 -1 19 -3 4 -6 -2 -5 -13z"/>
<path d="M2150 154 c0 -8 5 -12 10 -9 6 3 10 10 10 16 0 5 -4 9 -10 9 -5 0
-10 -7 -10 -16z"/>
<path d="M1969 148 c-2 -21 3 -63 7 -67 2 -3 10 1 16 7 9 9 9 12 0 12 -7 0 -9
10 -5 30 3 19 1 30 -6 30 -6 0 -11 -6 -12 -12z"/>
<path d="M2050 143 c0 -25 15 -38 25 -22 4 6 0 18 -9 27 -15 15 -16 15 -16 -5z"/>
<path d="M1915 90 c-3 -5 -2 -10 4 -10 5 0 13 5 16 10 3 6 2 10 -4 10 -5 0
-13 -4 -16 -10z"/>
<path d="M2032 79 c5 -14 21 -14 26 0 2 6 -4 11 -13 11 -9 0 -15 -5 -13 -11z"/>
<path d="M2320 69 c0 -5 5 -7 10 -4 6 3 10 8 10 11 0 2 -4 4 -10 4 -5 0 -10
-5 -10 -11z"/>
<path d="M1650 50 c0 -5 5 -10 11 -10 5 0 7 5 4 10 -3 6 -8 10 -11 10 -2 0 -4
-4 -4 -10z"/>
<path d="M1900 25 c0 -8 7 -15 15 -15 19 0 19 16 0 24 -9 3 -15 0 -15 -9z"/>
</g>
</svg>
